<svg width="32" height="32" viewBox="0 0 32 32" fill="none" xmlns="http://www.w3.org/2000/svg">
<path d="M0.46875 13.2016V26.2985C0.46875 28.3696 2.14769 30.0485 4.21875 30.0485H27.7812C29.8523 30.0485 31.5312 28.3696 31.5312 26.2985V13.2016L16 9.45157L0.46875 13.2016Z" fill="#EFEDFF"/>
<path d="M7.96875 26.2984V13.2016H0.46875V26.2985C0.46875 28.3696 2.14769 30.0485 4.21875 30.0485H11.7188C9.64769 30.0484 7.96875 28.3695 7.96875 26.2984Z" fill="#D4D4FF"/>
<path d="M27.7812 5.70157H4.21875C2.14769 5.70157 0.46875 7.38051 0.46875 9.45157V13.2016H31.5312V9.45157C31.5312 7.38051 29.8523 5.70157 27.7812 5.70157Z" fill="#FF8E9E"/>
<path d="M4.21875 5.70157C2.14769 5.70157 0.46875 7.38051 0.46875 9.45157V13.2016H7.96875C7.96875 11.2997 8.67706 9.56351 9.84375 8.24144V5.70157C7.10287 5.70157 4.36325 5.70157 4.21875 5.70157Z" fill="#EA5B70"/>
<path d="M9.84375 1.95157C8.80825 1.95157 7.96875 2.79107 7.96875 3.82657V9.45157C7.96875 9.91219 8.13494 10.3336 8.4105 10.66C8.75444 11.0674 9.26888 11.3266 9.84375 11.3266C10.8793 11.3266 11.7188 10.4871 11.7188 9.45157V6.70519V3.82657C11.7188 2.79101 10.8793 1.95157 9.84375 1.95157Z" fill="#9EA2E3"/>
<path d="M22.1562 11.3266C21.1207 11.3266 20.2812 10.4871 20.2812 9.45157V3.82657C20.2812 2.79107 21.1207 1.95157 22.1562 1.95157C23.1918 1.95157 24.0312 2.79107 24.0312 3.82657V9.45157C24.0312 10.4871 23.1918 11.3266 22.1562 11.3266Z" fill="#9EA2E3"/>
<path d="M20.9114 18.3508H19.2743V16.7136C19.2743 15.8095 18.5413 15.0765 17.6371 15.0765H15.7878H14.3629C13.4588 15.0765 12.7258 15.8094 12.7258 16.7136V18.3508H12.7256H11.0886C10.4768 18.3508 9.94363 18.6867 9.66269 19.1839C9.52851 19.4215 9.45151 19.6956 9.45151 19.9879V23.2621C9.45151 24.1663 10.1844 24.8993 11.0886 24.8993H12.7258V26.5364C12.7258 27.4405 13.4587 28.1735 14.3629 28.1735H17.0519H17.6371C17.7577 28.1735 17.8751 28.1601 17.9882 28.1354C18.3167 28.0636 18.6081 27.8931 18.8303 27.6567C19.1054 27.3639 19.2743 26.97 19.2743 26.5364V24.8993H20.9114C21.8155 24.8993 22.5485 24.1663 22.5485 23.2621V19.9879C22.5485 19.0838 21.8155 18.3508 20.9114 18.3508Z" fill="#EA5B70"/>
<path d="M27.7812 5.23282H24.5V3.82657C24.5 2.53419 23.4486 1.48282 22.1562 1.48282C20.8639 1.48282 19.8125 2.53419 19.8125 3.82657V5.23282H12.1875V3.82657C12.1875 2.53419 11.1361 1.48282 9.84375 1.48282C8.55138 1.48282 7.5 2.53419 7.5 3.82657V5.23282H4.21875C1.8925 5.23282 0 7.12532 0 9.45157V26.2985C0 28.6248 1.8925 30.5173 4.21875 30.5173H27.7812C28.4995 30.5173 29.2089 30.3334 29.8328 29.9856C30.0589 29.8595 30.14 29.574 30.0139 29.3479C29.8879 29.1218 29.6024 29.0406 29.3762 29.1668C28.8916 29.4369 28.3401 29.5798 27.7812 29.5798H4.21869C2.40944 29.5798 0.937437 28.1078 0.937437 26.2985V13.6703H3.9745C4.23344 13.6703 4.44325 13.4605 4.44325 13.2016C4.44325 12.9426 4.23344 12.7328 3.9745 12.7328H0.9375V9.45157C0.9375 7.64232 2.4095 6.17032 4.21875 6.17032H7.5V9.45157C7.5 10.7439 8.55138 11.7953 9.84375 11.7953C11.1361 11.7953 12.1875 10.7439 12.1875 9.45157V6.17032H19.8125V9.45157C19.8125 10.7439 20.8639 11.7953 22.1562 11.7953C23.4486 11.7953 24.5 10.7439 24.5 9.45157V6.17032H27.7812C29.5905 6.17032 31.0625 7.64232 31.0625 9.45157V12.7328H5.8565C5.59756 12.7328 5.38775 12.9426 5.38775 13.2016C5.38775 13.4605 5.59756 13.6703 5.8565 13.6703H31.0625V26.2985C31.0625 26.9213 30.8874 27.5271 30.5561 28.0504C30.4177 28.2692 30.4828 28.5588 30.7016 28.6973C30.9203 28.8356 31.2099 28.7706 31.3484 28.5518C31.7746 27.8783 32 27.0991 32 26.2985C32 25.8644 32 9.90319 32 9.45157C32 7.12532 30.1075 5.23282 27.7812 5.23282ZM11.25 9.45157C11.25 10.2269 10.6191 10.8578 9.84375 10.8578C9.06837 10.8578 8.4375 10.2269 8.4375 9.45157V3.82657C8.4375 3.05119 9.06837 2.42032 9.84375 2.42032C10.6191 2.42032 11.25 3.05119 11.25 3.82657V9.45157ZM23.5625 9.45157C23.5625 10.2269 22.9316 10.8578 22.1562 10.8578C21.3809 10.8578 20.75 10.2269 20.75 9.45157V3.82657C20.75 3.05119 21.3809 2.42032 22.1562 2.42032C22.9316 2.42032 23.5625 3.05119 23.5625 3.82657V9.45157Z" fill="black"/>
<path d="M14.3629 28.6422H17.6372C18.7902 28.6422 19.743 27.7071 19.743 26.5364V25.368H20.9114C22.0725 25.368 23.0172 24.4233 23.0172 23.2622V19.9879C23.0172 18.8268 22.0725 17.8821 20.9114 17.8821H19.743V16.7137C19.743 15.5526 18.7983 14.6079 17.6372 14.6079H14.3629C13.2018 14.6079 12.2571 15.5526 12.2571 16.7137V17.8821H11.0887C9.92644 17.8821 8.98288 18.8274 8.98288 19.9879V23.2622C8.98288 24.4233 9.92757 25.368 11.0887 25.368H12.2571V26.5364C12.257 27.6975 13.2018 28.6422 14.3629 28.6422ZM11.0886 24.4305C10.4444 24.4305 9.92032 23.9064 9.92032 23.2622V19.9879C9.92032 19.3384 10.4504 18.8196 11.0886 18.8196H12.7258C12.9847 18.8196 13.1945 18.6098 13.1945 18.3508V16.7137C13.1945 16.0694 13.7186 15.5454 14.3628 15.5454H17.6371C18.2814 15.5454 18.8054 16.0695 18.8054 16.7137V18.3508C18.8054 18.6098 19.0153 18.8196 19.2742 18.8196H20.9113C21.5556 18.8196 22.0796 19.3437 22.0796 19.9879V23.2622C22.0796 23.9064 21.5555 24.4305 20.9113 24.4305H19.2742C19.0153 24.4305 18.8054 24.6403 18.8054 24.8993V26.5364C18.8054 27.1831 18.2792 27.7047 17.6371 27.7047H14.3628C13.7186 27.7047 13.1945 27.1806 13.1945 26.5364V24.8993C13.1945 24.6403 12.9847 24.4305 12.7258 24.4305H11.0886Z" fill="black"/>
</svg>
