<svg width="24" height="24" viewBox="0 0 24 24" fill="none" xmlns="http://www.w3.org/2000/svg">
<g id="Iconly/Bulk/Paper">
<g id="Paper">
<path id="Fill 3" d="M18.8088 9.021C18.3573 9.021 17.7592 9.011 17.0146 9.011C15.1987 9.011 13.7055 7.508 13.7055 5.675V2.459C13.7055 2.206 13.5036 2 13.253 2H7.96363C5.49517 2 3.5 4.026 3.5 6.509V17.284C3.5 19.889 5.59022 22 8.16958 22H16.0463C18.5058 22 20.5 19.987 20.5 17.502V9.471C20.5 9.217 20.299 9.012 20.0475 9.013C19.6247 9.016 19.1177 9.021 18.8088 9.021Z" fill="#5A73D8"/>
<path id="Fill 1" d="M16.0842 2.56731C15.7852 2.25631 15.2632 2.47031 15.2632 2.90131V5.53831C15.2632 6.64431 16.1742 7.55431 17.2802 7.55431C17.9772 7.56231 18.9452 7.56431 19.7672 7.56231C20.1882 7.56131 20.4022 7.05831 20.1102 6.75431C19.0552 5.65731 17.1662 3.69131 16.0842 2.56731Z" fill="#5A73D8"/>
<path id="Combined Shape" fill-rule="evenodd" clip-rule="evenodd" d="M8.97398 11.3876H12.359C12.77 11.3876 13.104 11.0546 13.104 10.6436C13.104 10.2326 12.77 9.89859 12.359 9.89859H8.97398C8.56298 9.89859 8.22998 10.2326 8.22998 10.6436C8.22998 11.0546 8.56298 11.3876 8.97398 11.3876ZM8.97408 16.3818H14.4181C14.8291 16.3818 15.1631 16.0488 15.1631 15.6378C15.1631 15.2268 14.8291 14.8928 14.4181 14.8928H8.97408C8.56308 14.8928 8.23008 15.2268 8.23008 15.6378C8.23008 16.0488 8.56308 16.3818 8.97408 16.3818Z" fill="white"/>
</g>
</g>
</svg>
