<svg width="32" height="32" viewBox="0 0 32 32" fill="none" xmlns="http://www.w3.org/2000/svg">
<g clip-path="url(#clip0_77_6566)">
<path d="M31.5257 15.8421C31.45 14.7631 30.5755 13.8909 29.4963 13.8177C28.7575 13.7676 28.0905 14.0847 27.6595 14.6045C27.4204 14.8928 27.0676 15.0625 26.693 15.0625H26.5405C25.8699 15.0625 25.2945 14.5941 25.1477 13.9397C24.9186 12.9181 24.5226 11.9595 23.99 11.094C23.6412 10.5272 23.7179 9.79719 24.1885 9.32662L24.2069 9.30819C24.5042 9.01094 24.9179 8.852 25.3361 8.89481C26.0582 8.96869 26.8062 8.72919 27.3594 8.17587C28.3779 7.15737 28.3339 5.47875 27.2274 4.51737C26.2942 3.70662 24.8827 3.7085 23.9515 4.52137C23.314 5.07787 23.0312 5.873 23.1029 6.64137C23.1427 7.06762 22.9947 7.48987 22.692 7.79269L22.6732 7.8115C22.2729 8.21181 21.685 8.32594 21.1695 8.13669C21.079 8.1035 20.9905 8.06206 20.9059 8.01C20.0367 7.47512 19.0736 7.07806 18.047 6.84937C17.3974 6.70469 16.9375 6.12506 16.9375 5.45956V5.30737C16.9375 4.93956 17.0952 4.58519 17.3804 4.35294C17.8729 3.95187 18.1875 3.34081 18.1875 2.65619C18.1875 1.39575 17.1216 0.384374 15.842 0.474249C14.763 0.550062 13.8909 1.42456 13.8177 2.50369C13.7677 3.2425 14.0847 3.90944 14.6045 4.3405C14.8929 4.57962 15.0626 4.93237 15.0626 5.307V5.45956C15.0626 6.13019 14.5942 6.70556 13.9399 6.85231C12.9183 7.08144 11.9598 7.47731 11.0944 8.00987C10.5276 8.35862 9.79761 8.28187 9.32705 7.81131L9.3088 7.79306C9.01148 7.49575 8.85248 7.08181 8.8953 6.6635C8.96923 5.94125 8.72961 5.193 8.17617 4.63956C7.15723 3.62094 5.47805 3.665 4.51636 4.77187C3.70542 5.70531 3.7073 7.11725 4.52048 8.04875C5.07723 8.6865 5.87267 8.96931 6.64136 8.8975C7.06767 8.85769 7.48998 9.00569 7.79273 9.3085L7.81136 9.32712C8.28186 9.79775 8.35861 10.5277 8.00986 11.0946C7.47736 11.9599 7.08155 12.9183 6.85242 13.9398C6.70561 14.5941 6.13023 15.0625 5.45961 15.0625H5.30742C4.93961 15.0625 4.58523 14.9048 4.35298 14.6196C3.95192 14.1271 3.34092 13.8125 2.65623 13.8125C1.39592 13.8125 0.384546 14.8783 0.474296 16.1577C0.549983 17.2368 1.42448 18.1091 2.50367 18.1823C3.24255 18.2324 3.90948 17.9154 4.34055 17.3955C4.57967 17.1072 4.93242 16.9375 5.30698 16.9375H5.45955C6.13011 16.9375 6.70555 17.4059 6.8523 18.0602C7.08142 19.0819 7.47742 20.0405 8.01005 20.906C8.35886 21.4727 8.28211 22.2028 7.81155 22.6734L7.79311 22.6918C7.49586 22.9891 7.08205 23.148 6.66386 23.1052C5.9418 23.0313 5.1938 23.2708 4.64055 23.8241C3.62205 24.8426 3.66611 26.5213 4.77267 27.4827C5.7058 28.2934 7.1173 28.2915 8.04855 27.4786C8.68605 26.9221 8.9688 26.1269 8.89705 25.3585C8.85723 24.9323 9.00523 24.5101 9.30792 24.2074L9.35555 24.1597C9.80642 23.7089 10.5089 23.6256 11.0502 23.9626C11.8877 24.484 12.8134 24.8768 13.7997 25.1141C13.845 25.125 13.89 25.1364 13.9355 25.1467C14.5912 25.2947 15.0625 25.8682 15.0625 26.5404V26.6926C15.0625 27.0604 14.9048 27.4147 14.6195 27.647C14.127 28.0481 13.8125 28.6591 13.8125 29.3438C13.8125 30.6041 14.8784 31.6155 16.1579 31.5257C17.2369 31.45 18.1091 30.5754 18.1823 29.4963C18.2324 28.7574 17.9153 28.0904 17.3955 27.6594C17.1072 27.4202 16.9375 27.0675 16.9375 26.6929V26.5404C16.9375 25.8697 17.4059 25.2944 18.0602 25.1476C19.0954 24.9154 20.0657 24.5121 20.9401 23.9688C21.4853 23.6301 22.1906 23.7062 22.6445 24.1601L22.6913 24.2069C22.9886 24.5042 23.1476 24.9181 23.1048 25.3364C23.0309 26.0587 23.2705 26.8069 23.8239 27.3604C24.8427 28.3792 26.5219 28.3351 27.4835 27.2283C28.2945 26.2948 28.2927 24.8829 27.4795 23.9514C26.9227 23.3136 26.1273 23.0308 25.3586 23.1026C24.9323 23.1424 24.51 22.9944 24.2072 22.6916L24.1886 22.673C23.7181 22.2024 23.6414 21.4724 23.9901 20.9056C24.5226 20.0402 24.9184 19.0818 25.1475 18.0603C25.2944 17.4059 25.8698 16.9375 26.5404 16.9375H26.6926C27.0604 16.9375 27.4148 17.0952 27.6471 17.3804C28.0482 17.8729 28.6592 18.1875 29.3439 18.1875C30.6041 18.1875 31.6155 17.1216 31.5257 15.8421Z" fill="#C9AAF2"/>
<path d="M13.9845 15.4674C15.3227 12.1649 17.9098 9.53481 21.1694 8.13669C21.079 8.1035 20.9904 8.06206 20.9059 8.01C20.0366 7.47512 19.0735 7.07806 18.0469 6.84937C17.3974 6.70469 16.9375 6.12506 16.9375 5.45956V5.30737C16.9375 4.93956 17.0952 4.58519 17.3804 4.35294C17.8729 3.95187 18.1875 3.34081 18.1875 2.65619C18.1875 1.39575 17.1215 0.384374 15.8419 0.474249C14.7629 0.550062 13.8908 1.42456 13.8177 2.50369C13.7675 3.2425 14.0847 3.90944 14.6045 4.3405C14.8928 4.57962 15.0625 4.93237 15.0625 5.307V5.45956C15.0625 6.13019 14.5941 6.70556 13.9398 6.85231C12.9182 7.08144 11.9597 7.47731 11.0943 8.00987C10.5275 8.35862 9.79755 8.28187 9.32698 7.81131L9.30873 7.79306C9.01142 7.49575 8.85242 7.08181 8.89523 6.6635C8.96917 5.94125 8.72955 5.193 8.17611 4.63956C7.15723 3.62094 5.47805 3.665 4.51636 4.77187C3.70542 5.70531 3.7073 7.11725 4.52048 8.04875C5.07723 8.6865 5.87267 8.96931 6.64136 8.8975C7.06767 8.85769 7.48998 9.00569 7.79273 9.3085L7.81136 9.32712C8.28186 9.79775 8.35861 10.5277 8.00986 11.0946C7.47736 11.9599 7.08155 12.9183 6.85242 13.9398C6.70561 14.5941 6.13023 15.0625 5.45961 15.0625H5.30742C4.93961 15.0625 4.58523 14.9048 4.35298 14.6196C3.95192 14.1271 3.34092 13.8125 2.65623 13.8125C1.39592 13.8125 0.384546 14.8783 0.474296 16.1577C0.549983 17.2368 1.42448 18.1091 2.50367 18.1823C3.24255 18.2324 3.90948 17.9154 4.34055 17.3955C4.57967 17.1072 4.93242 16.9375 5.30698 16.9375H5.45955C6.13011 16.9375 6.70555 17.4059 6.8523 18.0602C7.08142 19.0819 7.47742 20.0405 8.01005 20.906C8.35886 21.4727 8.28211 22.2028 7.81155 22.6734L7.79311 22.6918C7.49586 22.9891 7.08205 23.148 6.66386 23.1052C5.9418 23.0313 5.1938 23.2708 4.64055 23.8241C3.62205 24.8426 3.66611 26.5213 4.77267 27.4827C5.7058 28.2934 7.1173 28.2915 8.04855 27.4786C8.68605 26.9221 8.9688 26.1269 8.89705 25.3585C8.85723 24.9322 9.00523 24.5101 9.30792 24.2074L9.35555 24.1597C9.80642 23.7089 10.5089 23.6256 11.0502 23.9626C11.8877 24.484 12.8134 24.8768 13.7997 25.1141C12.6752 21.9998 12.7299 18.5637 13.9845 15.4674Z" fill="#B28AE4"/>
<path d="M27.2981 14.3056C26.8795 14.8103 25.7965 14.6848 25.605 13.8369C25.3675 12.7794 24.9587 11.7738 24.3893 10.8481C23.9619 10.1543 24.5199 9.35631 25.2007 9.35631C25.3202 9.35631 26.6173 9.58081 27.6907 8.50756C28.9198 7.27813 28.8255 5.28369 27.535 4.16381C25.5409 2.43244 22.3803 4.02838 22.6363 6.68569C22.7033 7.50606 21.8255 8.02875 21.1519 7.61069C20.2225 7.03881 19.2119 6.62881 18.1488 6.39194C17.3282 6.21063 17.1923 5.10887 17.6763 4.71631C19.6205 3.13781 18.4767 0 16 0C15.6434 0 15.2818 0.06975 14.9343 0.223125C14.4742 0.426812 14.6145 1.12125 15.1237 1.12125C15.3417 1.12125 15.4809 0.9375 16 0.9375C17.6079 0.940687 18.3363 2.96844 17.0843 3.98938C15.9932 4.88019 16.3625 6.9545 17.945 7.30688C18.9056 7.52063 19.8193 7.89188 20.66 8.40938C21.9447 9.20263 23.5812 8.25831 23.5775 6.77812C23.5775 6.61281 23.5606 6.576 23.5606 6.40812C23.5624 4.63931 25.6411 3.76088 26.92 4.87125C28.4211 6.17913 27.3344 8.64313 25.3837 8.42813C25.3831 8.42813 25.3831 8.42813 25.3825 8.42813C23.8462 8.28137 22.7573 9.98456 23.5906 11.34C24.9184 13.498 24.3859 14.3288 25.353 15.1113C26.0535 15.677 27.3163 15.7541 28.0199 14.9038C29.0142 13.7074 30.9554 14.3467 31.0581 15.8751C31.1831 17.5322 29.0742 18.3888 28.0106 17.0844C27.1169 15.9919 25.0468 16.3613 24.69 17.9576C23.9385 21.3091 21.2963 23.9429 17.9574 24.6901C16.3433 25.0509 16.0082 27.1198 17.0962 28.0201C18.3316 29.0469 17.5987 31.0626 15.9999 31.0626C14.3972 31.0594 13.6607 29.034 14.9155 28.0107C15.734 27.3426 15.6927 26.07 15.1087 25.352C14.3232 24.3829 13.5055 24.9394 11.298 23.5645C10.0412 22.7806 8.41866 23.7608 8.41866 25.1933C8.41866 25.369 8.43928 25.4126 8.43928 25.592C8.43553 27.3661 6.35828 28.2388 5.07991 27.1289C3.59366 25.8356 4.63216 23.3759 6.61616 23.5714C8.10753 23.7261 9.26085 22.0425 8.40928 20.6601C7.08278 18.5046 7.61353 17.671 6.64678 16.8889C5.95041 16.3263 4.68572 16.2436 3.97991 17.0964C2.94266 18.3426 0.937409 17.583 0.937409 16.0001C0.940597 14.3919 2.96841 13.664 3.98928 14.9157C4.8561 15.9776 6.94597 15.6709 7.30991 14.0426C7.84228 11.6677 8.69491 11.443 8.69491 10.3319C8.69778 9.23606 7.74003 8.32263 6.59741 8.43069C4.74978 8.59031 3.6906 6.43775 4.86991 5.07944C6.10291 3.66469 8.43716 4.52694 8.43928 6.40756C8.43928 6.61513 8.2681 7.415 8.97741 8.12444C9.65528 8.80231 10.6242 8.84888 11.3399 8.40944C12.1762 7.89444 13.0855 7.52444 14.0424 7.31006C15.6403 6.95044 16.0052 4.89281 14.9037 3.97944C14.3563 3.5255 14.1548 2.79556 14.358 2.14756C14.5466 1.54906 13.6454 1.28181 13.463 1.86819C13.1568 2.84637 13.4393 3.98531 14.3049 4.70131C14.8116 5.12181 14.6838 6.20381 13.8368 6.39506C12.7799 6.63194 11.7743 7.04131 10.8487 7.61069C10.1706 8.02675 9.35491 7.501 9.35678 6.79881C9.35678 6.69662 9.58135 5.38212 8.50741 4.30819C7.30535 3.10612 5.3076 3.14469 4.16241 4.46444C2.50997 6.36763 3.85547 9.377 6.40741 9.377C6.54866 9.377 6.7591 9.3595 6.77741 9.3595C7.53222 9.36125 8.0176 10.1881 7.61053 10.8489C7.04116 11.7745 6.63178 12.7801 6.39491 13.837C6.29428 14.2826 5.90991 14.5939 5.45928 14.5939H5.30741C4.66422 14.5939 4.74803 14.0627 3.81616 13.6101C2.00153 12.7262 -0.135966 14.1278 0.00678446 16.1914C0.176284 18.5555 3.16903 19.5431 4.70116 17.6952C5.12497 17.1845 6.20472 17.3214 6.39491 18.1626C6.63241 19.2208 7.04116 20.2264 7.61053 21.152C8.04091 21.8506 7.47466 22.6432 6.80053 22.6432C6.6831 22.6432 5.38222 22.4212 4.30866 23.4926C2.29047 25.5108 4.0271 28.971 6.87741 28.5214C8.40178 28.2809 9.51916 26.8949 9.36116 25.2857C9.27947 24.62 10.0957 23.9205 10.8024 24.3607C11.7775 24.9676 12.8364 25.3846 13.8324 25.6039C14.2805 25.7064 14.5937 26.0914 14.5937 26.5407V26.6926C14.5937 27.3359 14.0617 27.2522 13.6099 28.1845C13.1312 29.1671 13.2938 30.3939 14.1218 31.222C14.623 31.7232 15.2905 32.0001 15.9999 32.0001C18.4692 32.0001 19.611 28.8844 17.6943 27.2989C17.1843 26.8741 17.3214 25.7953 18.1624 25.6051C19.2343 25.3644 20.2518 24.9482 21.1875 24.3669C21.8869 23.9323 22.7114 24.5844 22.6381 25.2901C22.4608 27.0394 23.8276 28.5613 25.5993 28.5613C27.761 28.5613 29.2087 26.2956 28.2743 24.3176C28.0947 23.9396 27.5481 23.9707 27.4093 24.3601C27.2825 24.7127 27.6218 24.8259 27.6218 25.592C27.6212 26.0839 27.4468 26.5557 27.1293 26.9207C26.32 27.8508 24.9565 27.8298 24.1556 27.0289C23.4102 26.2836 23.58 25.4067 23.58 25.2014C23.58 24.3978 23.0368 23.7222 22.4255 23.4505C22.7935 23.1313 23.14 22.7843 23.4587 22.4159C23.7748 23.1531 24.5496 23.6509 25.4018 23.5695L25.4032 23.5689C26.0443 23.5112 26.2967 23.7358 26.5132 23.7358C27.0261 23.7358 27.1669 23.021 26.6863 22.8308C25.5075 22.3647 25.1106 22.9301 24.52 22.3414C23.93 21.7513 24.4789 21.0061 24.3897 21.1509C24.959 20.2261 25.3676 19.2206 25.605 18.1627C25.7057 17.7177 26.09 17.4064 26.5407 17.4064C26.685 17.4064 27.0396 17.3754 27.2838 17.6764C28.8488 19.6044 32 18.4953 32 16C32 13.5367 28.8865 12.3853 27.2981 14.3056Z" fill="black"/>
</g>
<defs>
<clipPath id="clip0_77_6566">
<rect width="32" height="32" fill="white"/>
</clipPath>
</defs>
</svg>
