<svg width="25" height="24" viewBox="0 0 24 22" fill="none" xmlns="http://www.w3.org/2000/svg">
<path d="M12.9599 22.7501C12.7899 22.7501 12.6199 22.7501 12.4499 22.7401C6.84995 22.4901 2.16995 17.9801 1.77995 12.4801C1.43995 7.76011 4.16995 3.35011 8.56995 1.50011C9.81995 0.980114 10.4799 1.38011 10.7599 1.67011C11.0399 1.95011 11.4299 2.60011 10.9099 3.79011C10.4499 4.85011 10.2199 5.98011 10.2299 7.14011C10.2499 11.5701 13.9299 15.3301 18.4199 15.5101C19.0699 15.5401 19.7099 15.4901 20.3299 15.3801C21.6499 15.1401 22.1999 15.6701 22.4099 16.0101C22.6199 16.3501 22.8599 17.0801 22.0599 18.1601C19.9399 21.0601 16.5699 22.7501 12.9599 22.7501ZM3.26995 12.3701C3.60995 17.1301 7.66995 21.0301 12.5099 21.2401C15.7999 21.4001 18.9199 19.9001 20.8399 17.2801C20.9899 17.0701 21.0599 16.9201 21.0899 16.8401C20.9999 16.8301 20.8399 16.8201 20.5899 16.8701C19.8599 17.0001 19.0999 17.0501 18.3499 17.0201C13.0699 16.8101 8.74995 12.3801 8.71995 7.16011C8.71995 5.78011 8.98995 4.45011 9.53995 3.20011C9.63995 2.98011 9.65995 2.83011 9.66995 2.75011C9.57995 2.75011 9.41995 2.77011 9.15995 2.88011C5.34995 4.48011 2.98995 8.30011 3.26995 12.3701Z" fill="#2A2A2A"/>
</svg>
