<svg width="32" height="32" viewBox="0 0 32 32" fill="none" xmlns="http://www.w3.org/2000/svg">
<g clip-path="url(#clip0_77_6413)">
<path d="M28.2006 6.00598C26.5124 0.544359 20.7371 -0.750891 16.0008 1.54773C14.2139 0.680484 11.5691 -0.0414537 8.5383 0.941234C8.16236 1.05898 7.7993 1.21286 7.45124 1.39805C5.7633 2.29605 4.43661 3.94967 3.80099 6.00598C2.7798 9.20242 3.43705 12.8261 5.56261 15.704C6.00043 16.2877 6.13593 18.1949 6.22561 19.4569C6.50711 23.4185 7.33605 31.4805 11.2713 31.5312C12.1229 31.5312 12.8763 30.9016 13.5864 29.5754C14.4741 27.9175 14.5268 26.9145 15.2502 22.6008C15.3645 22.2322 15.6827 22.0478 16.0008 22.0479C16.3189 22.0478 16.6371 22.2321 16.7514 22.6008C17.4602 26.8273 17.5153 27.8949 18.4152 29.5754C19.1253 30.9016 19.8787 31.5312 20.7303 31.5312C24.6656 31.4805 25.4944 23.4185 25.776 19.4569C25.8284 18.7193 25.8966 17.7616 26.0316 16.9764C26.1275 16.418 26.2571 15.9465 26.4391 15.704C28.5646 12.8261 29.2218 9.20236 28.2006 6.00598Z" fill="#EFEDFF"/>
<path d="M14.2407 15.4104C9.44049 12.4416 6.80899 6.97251 7.45124 1.39801C5.7633 2.29607 4.43661 3.9497 3.80099 6.00601C2.7798 9.20245 3.43705 12.8261 5.56261 15.704C6.00043 16.2878 6.13593 18.1949 6.22561 19.4569C6.50711 23.4186 7.33605 31.4806 11.2713 31.5313C12.1229 31.5313 12.8763 30.9016 13.5864 29.5754C14.4741 27.9176 14.5268 26.9146 15.2502 22.6008C15.3645 22.2322 15.6827 22.0478 16.0008 22.0479C16.3189 22.0478 16.6371 22.2321 16.7514 22.6008C17.4602 26.8273 17.5153 27.8949 18.4152 29.5754C19.1253 30.9016 19.8787 31.5313 20.7303 31.5313C24.6656 31.4805 25.4944 23.4185 25.776 19.4569C25.8284 18.7193 25.8966 17.7616 26.0315 16.9764C22.1267 18.1401 17.8293 17.6298 14.2407 15.4104Z" fill="#D4D4FF"/>
<path d="M20.5112 0C18.9923 0 17.476 0.346063 16.0008 1.029C14.5255 0.346063 13.0092 0 11.4904 0C9.66453 0 7.6606 0.487188 6.11803 1.71656C5.9156 1.87794 5.88228 2.17288 6.0436 2.37531C6.20503 2.57781 6.49985 2.61106 6.70235 2.44969C8.68391 0.870312 12.1485 0.309187 15.5321 1.84537V2.04681C15.5321 2.30575 15.742 2.51556 16.0008 2.51556C16.2597 2.51556 16.4696 2.30575 16.4696 2.04681V1.84537C17.7968 1.24281 19.1551 0.9375 20.5112 0.9375C28.0812 0.9375 30.3269 9.65069 26.064 15.4227C25.5088 16.163 25.3877 18.3066 25.3083 19.4237C25.1036 22.3066 24.6443 26.6617 23.2316 29.1842C22.5308 30.4355 21.7107 31.0499 20.7303 31.0626C19.2429 31.0626 18.1548 28.1361 17.8913 26.5641C17.1671 22.2453 17.2137 22.5089 17.1991 22.462C17.0327 21.9257 16.5623 21.5792 16.0008 21.5792H14.6305C14.3717 21.5792 14.1618 21.789 14.1618 22.0479C14.1618 22.3069 14.3717 22.5167 14.6305 22.5167H14.7895C14.789 22.5189 14.7883 22.5211 14.7879 22.5233C14.0828 26.7282 14.0324 27.7496 13.1732 29.3541C12.5577 30.5037 11.9356 31.0625 11.2774 31.0626C7.73085 31.0168 6.94235 22.9286 6.69328 19.4236C6.56472 17.6144 6.4191 16.0646 5.93978 15.4254C3.08497 11.5601 3.24747 6.67419 5.48335 3.70806C5.63922 3.50131 5.59791 3.20744 5.39122 3.05156C5.18441 2.89575 4.89053 2.93687 4.73478 3.14375C2.21422 6.48738 2.11641 11.8266 5.18772 15.9852C5.54272 16.4585 5.68822 18.5061 5.75816 19.4901C6.06535 23.8132 6.93628 31.9442 11.2713 31.9999C13.3838 31.9999 14.6865 28.7967 15.035 26.719L15.7063 22.7153C15.8078 22.4491 16.194 22.4491 16.2954 22.7153L16.9668 26.719C17.3162 28.8028 18.6188 32 20.7364 31.9999C25.0605 31.9441 25.9374 23.8006 26.2436 19.4901C26.2889 18.8528 26.4333 16.4927 26.8161 15.9824C31.527 9.60375 28.8932 0 20.5112 0V0Z" fill="black"/>
</g>
<defs>
<clipPath id="clip0_77_6413">
<rect width="32" height="32" fill="white"/>
</clipPath>
</defs>
</svg>
