<svg width="32" height="32" viewBox="0 0 32 32" fill="none" xmlns="http://www.w3.org/2000/svg">
<g clip-path="url(#clip0_77_6316)">
<path d="M23.8949 16.2879C24.5254 15.1902 24.8857 13.9206 24.8857 12.5675C24.8857 8.69431 21.3401 4.10044 18.5099 1.20531C18.3766 1.06894 18.2448 0.936188 18.1151 0.807625C17.8848 0.582063 17.5831 0.468938 17.2816 0.46875C16.979 0.468563 16.6765 0.582125 16.4467 0.809938C13.6083 3.62394 9.67749 8.59525 9.67749 12.5675C9.67749 16.8478 13.1014 20.101 17.2816 20.1011C20.1156 20.1014 22.5869 18.5652 23.8949 16.2879Z" fill="#FF8E9E"/>
<path d="M23.8949 16.2879C23.5714 16.3295 23.2416 16.3512 22.9066 16.3511C18.7264 16.351 15.3025 13.0978 15.3025 8.8175C15.3025 7.07963 16.0549 5.15063 17.1391 3.29469C17.7884 2.183 19.3433 2.05594 20.1802 3.03338C19.6171 2.37331 19.0505 1.75825 18.5099 1.20525C18.3766 1.06888 18.2448 0.936127 18.1151 0.807564C17.8848 0.582002 17.5831 0.468877 17.2816 0.468689C16.979 0.468502 16.6765 0.582064 16.4467 0.809877C13.6083 3.62394 9.67749 8.59525 9.67749 12.5675C9.67749 16.8478 13.1014 20.101 17.2816 20.1011C20.1156 20.1014 22.5869 18.5652 23.8949 16.2879Z" fill="#EA5B70"/>
<path d="M12.3093 15.3898C13.3226 15.3898 14.144 14.7357 14.144 13.9288C14.144 13.1219 13.3226 12.4677 12.3093 12.4677C11.296 12.4677 10.4746 13.1219 10.4746 13.9288C10.4746 14.7357 11.296 15.3898 12.3093 15.3898Z" fill="#FFB5C0"/>
<path d="M22.2539 15.3898C23.2671 15.3898 24.0886 14.7357 24.0886 13.9288C24.0886 13.1219 23.2671 12.4677 22.2539 12.4677C21.2406 12.4677 20.4192 13.1219 20.4192 13.9288C20.4192 14.7357 21.2406 15.3898 22.2539 15.3898Z" fill="#FFB5C0"/>
<path d="M7.68399 16.5342C7.50499 16.3589 7.27049 16.271 7.03612 16.2709C6.80087 16.2707 6.56574 16.359 6.38712 16.5361C4.1808 18.7234 1.12537 22.5877 1.12537 25.6754C1.12537 29.0025 3.7868 31.5312 7.03612 31.5313C8.81862 31.5314 10.4166 30.7496 11.5003 29.5134C12.4014 28.4855 12.9469 27.1434 12.9469 25.6754C12.9469 22.7457 10.3372 19.2857 8.16968 17.0281C8.00474 16.8563 7.84237 16.6912 7.68399 16.5342Z" fill="#FF8E9E"/>
<path d="M5.12536 23.6753C5.12536 22.1478 5.87318 20.4302 6.89605 18.8197C7.50918 17.8542 8.89205 17.7736 9.61793 18.6572C9.13524 18.069 8.64193 17.5199 8.16968 17.028C8.0048 16.8563 7.84243 16.6912 7.68405 16.5342C7.50505 16.3589 7.27055 16.271 7.03618 16.2709C6.80093 16.2707 6.5658 16.359 6.38718 16.5361C4.18087 18.7234 1.12543 22.5877 1.12543 25.6754C1.12543 29.0025 3.78687 31.5312 7.03618 31.5313C8.81868 31.5314 10.4167 30.7496 11.5004 29.5134C11.3472 29.5252 11.1924 29.5313 11.0362 29.5313C7.7868 29.5311 5.12536 27.0024 5.12536 23.6753Z" fill="#EA5B70"/>
<path d="M27.4511 17.7064C27.3143 17.563 27.1796 17.4253 27.0488 17.2956C26.9186 17.1681 26.7481 17.1043 26.5778 17.1041C26.4068 17.104 26.2358 17.1682 26.1059 17.2969C24.5021 18.8871 22.2809 21.6962 22.2809 23.9408C22.2809 26.3595 24.2156 28.1978 26.5778 28.1979C28.3199 28.198 29.8187 27.1701 30.4932 25.6938C30.7375 25.159 30.8746 24.5659 30.8746 23.9408C30.8746 21.8332 29.0168 19.3484 27.4511 17.7064Z" fill="#FF8E9E"/>
<path d="M26.0309 21.4409C26.0309 20.597 26.3451 19.6734 26.8223 18.7647C27.1099 18.2171 27.86 18.1395 28.2618 18.6084C27.9901 18.2877 27.7164 17.9848 27.4511 17.7064C27.3143 17.5631 27.1796 17.4254 27.0488 17.2957C26.9186 17.1682 26.7481 17.1043 26.5778 17.1042C26.4068 17.1041 26.2358 17.1683 26.1059 17.297C24.5021 18.8871 22.2809 21.6962 22.2809 23.9409C22.2809 26.3596 24.2156 28.1979 26.5778 28.1979C28.3199 28.1981 29.8187 27.1701 30.4932 25.6938C30.4383 25.6959 30.3833 25.6979 30.3278 25.6979C27.9657 25.6979 26.0309 23.8596 26.0309 21.4409Z" fill="#EA5B70"/>
<path d="M25.3545 12.5675C25.3545 9.36306 23.0769 5.8615 21.1662 3.48831C21.0039 3.28662 20.7089 3.25469 20.5072 3.41712C20.3055 3.5795 20.2737 3.87456 20.436 4.07619C22.2521 6.33194 24.4169 9.63612 24.4169 12.5674C24.4169 16.4858 21.1976 19.6324 17.2816 19.6324C13.2804 19.6322 10.1462 16.529 10.1462 12.5674C10.1462 8.73556 14.0551 3.84094 16.7767 1.14275C17.0549 0.866875 17.5106 0.871562 17.785 1.14044C18.2625 1.61375 18.7556 2.13075 19.2365 2.66663C19.4095 2.85931 19.7058 2.87531 19.8984 2.70244C20.0911 2.5295 20.1071 2.23319 19.9342 2.0405C19.4519 1.50306 18.9477 0.972875 18.4431 0.472688C18.1322 0.168125 17.7198 0.00025 17.2816 0C16.8407 0 16.427 0.169437 16.1167 0.477062C13.1744 3.39406 9.20874 8.44281 9.20874 12.5675C9.20874 17.0773 12.808 20.5698 17.2816 20.5699C21.6792 20.5699 25.3545 17.0371 25.3545 12.5675Z" fill="black"/>
<path d="M8.01199 16.1994C7.46987 15.6683 6.59568 15.669 6.05712 16.2032C3.75474 18.4857 0.656616 22.431 0.656616 25.6753C0.656616 27.1307 1.12474 28.4895 2.01043 29.6049C2.17143 29.8077 2.46624 29.8416 2.66899 29.6805C2.87174 29.5195 2.90562 29.2247 2.74462 29.022C1.99199 28.074 1.59412 26.9168 1.59412 25.6754C1.59412 22.9272 4.24049 19.3244 6.71718 16.869C6.89337 16.6942 7.18243 16.6992 7.35393 16.8672C9.48905 18.984 12.4781 22.6718 12.4781 25.6754C12.4781 28.645 10.045 31.0625 7.03612 31.0625C5.94987 31.0625 4.9048 30.756 4.01399 30.1761C3.79705 30.0349 3.50668 30.0962 3.36543 30.3132C3.22418 30.5302 3.28562 30.8206 3.50255 30.9618C4.54593 31.641 5.7678 32 7.03612 32C10.5608 32 13.4156 29.1641 13.4156 25.6753C13.4156 22.374 10.3651 18.5324 8.01199 16.1994Z" fill="black"/>
<path d="M27.3768 16.9608C26.9331 16.5263 26.2174 16.5264 25.7759 16.9641C23.8597 18.8639 21.8121 21.6944 21.8121 23.9409C21.8121 26.5908 23.9054 28.6666 26.5777 28.6667H26.5781C29.1914 28.6667 31.3434 26.56 31.3434 23.9409C31.3434 21.4896 29.124 18.6934 27.3768 16.9608ZM26.5781 27.7292C26.578 27.7292 26.5779 27.7292 26.5778 27.7292C24.4311 27.7291 22.7496 26.0651 22.7496 23.9409C22.7496 21.9803 24.7354 19.3158 26.4359 17.6299C26.5149 17.5517 26.6453 17.5566 26.7186 17.6286C28.2385 19.1352 30.4058 21.7985 30.4058 23.9409C30.4059 26.0306 28.6873 27.7292 26.5781 27.7292Z" fill="black"/>
</g>
<defs>
<clipPath id="clip0_77_6316">
<rect width="32" height="32" fill="white"/>
</clipPath>
</defs>
</svg>
