<svg width="18" height="13" viewBox="0 0 18 13" fill="none" xmlns="http://www.w3.org/2000/svg">
<path fill-rule="evenodd" clip-rule="evenodd" d="M8.91495 7.8105L8.99964 7.81052L9.18908 7.81117C10.637 7.8207 13.946 7.96697 13.946 10.2098C13.946 12.4378 10.7524 12.5831 9.21164 12.5926L8.64081 12.5926C7.19279 12.5831 3.8832 12.437 3.8832 10.197C3.8832 7.96614 7.19279 7.82065 8.64081 7.81116L8.83026 7.81052C8.85965 7.8105 8.8879 7.8105 8.91495 7.8105ZM8.91495 8.9355C7.13295 8.9355 5.0082 9.1545 5.0082 10.197C5.0082 11.2159 7.00613 11.4541 8.75207 11.4676L8.91495 11.4683C10.6969 11.4683 12.821 11.25 12.821 10.2098C12.821 9.15675 10.6969 8.9355 8.91495 8.9355ZM14.8801 7.50615C16.6974 7.7784 17.0792 8.6319 17.0792 9.30015C17.0792 9.70815 16.9186 10.4529 15.8462 10.8616C15.7802 10.8864 15.7127 10.8984 15.6459 10.8984C15.4194 10.8984 15.2057 10.7604 15.1201 10.5361C15.0092 10.2459 15.1554 9.9204 15.4457 9.81015C15.9542 9.61665 15.9542 9.4029 15.9542 9.30015C15.9542 8.97165 15.5364 8.74215 14.7129 8.61915C14.4062 8.57265 14.1939 8.2869 14.2397 7.97865C14.2854 7.67115 14.5704 7.4664 14.8801 7.50615ZM3.5895 7.97865C3.63525 8.2869 3.423 8.57265 3.11625 8.61915C2.29275 8.74215 1.875 8.97165 1.875 9.30015C1.875 9.4029 1.875 9.6159 2.38425 9.81015C2.6745 9.9204 2.82075 10.2459 2.70975 10.5361C2.62425 10.7604 2.4105 10.8984 2.184 10.8984C2.11725 10.8984 2.04975 10.8864 1.98375 10.8616C0.9105 10.4521 0.75 9.7074 0.75 9.30015C0.75 8.63265 1.13175 7.7784 2.94975 7.50615C3.2595 7.46715 3.543 7.67115 3.5895 7.97865ZM8.91495 0C10.8049 0 12.3417 1.5375 12.3417 3.42675C12.3417 5.316 10.8049 6.8535 8.91495 6.8535H8.8947C7.9797 6.8505 7.12245 6.492 6.48045 5.844C5.83695 5.19675 5.4852 4.33725 5.48892 3.4245C5.48892 1.5375 7.0257 0 8.91495 0ZM8.91495 1.125C7.64595 1.125 6.61393 2.15775 6.61393 3.42675C6.6117 4.04175 6.8472 4.617 7.27845 5.05125C7.7097 5.4855 8.2842 5.72625 8.8962 5.7285L8.91495 6.291V5.7285C10.1839 5.7285 11.2167 4.6965 11.2167 3.42675C11.2167 2.15775 10.1839 1.125 8.91495 1.125ZM13.5567 0.734625C14.8752 0.951375 15.833 2.07938 15.833 3.41663C15.83 4.76288 14.8242 5.91787 13.493 6.10462C13.4667 6.10837 13.4405 6.10987 13.415 6.10987C13.139 6.10987 12.8982 5.90663 12.8584 5.62538C12.8157 5.31713 13.0295 5.03288 13.3377 4.99013C14.1177 4.88063 14.7065 4.20413 14.708 3.41513C14.708 2.63288 14.1469 1.97138 13.3737 1.84462C13.0677 1.79438 12.86 1.50487 12.9102 1.19813C12.9612 0.891375 13.2485 0.685875 13.5567 0.734625ZM4.9197 1.19813C4.96995 1.50487 4.7622 1.79438 4.4562 1.84462C3.68295 1.97138 3.12195 2.63287 3.12195 3.41663C3.12345 4.20412 3.7122 4.88137 4.49145 4.99013C4.7997 5.03288 5.01345 5.31713 4.9707 5.62538C4.93095 5.90663 4.6902 6.10987 4.4142 6.10987C4.3887 6.10987 4.36245 6.10837 4.3362 6.10462C3.00495 5.91787 1.99995 4.76288 1.99695 3.41812C1.99695 2.07938 2.9547 0.951375 4.2732 0.734625C4.58895 0.685125 4.8687 0.892875 4.9197 1.19813Z" fill="#5A73D8"/>
</svg>
