<svg width="32" height="32" viewBox="0 0 32 32" fill="none" xmlns="http://www.w3.org/2000/svg">
<g clip-path="url(#clip0_77_6377)">
<path d="M17.785 5.0376C16.7067 5.77522 15.2934 5.77522 14.2151 5.0376C13.6873 4.6766 13.1181 4.3716 12.516 4.13116C11.5076 3.72853 10.4069 3.50703 9.25444 3.50703C4.40225 3.5071 0.46875 7.43347 0.46875 12.2768C0.46875 19.2254 7.38081 23.9114 13.2925 27.7124C14.9412 28.7724 17.0592 28.7718 18.708 27.7117C20.5119 26.5518 21.7887 25.718 23.0259 24.8102C27.4256 21.5818 31.5312 17.6642 31.5312 12.2768C31.5312 5.19022 23.5549 1.09053 17.785 5.0376Z" fill="#FF8E9E"/>
<path d="M19.0325 24.4492C16.7252 22.9658 15.3531 22.057 13.6258 20.6377C10.9774 18.4615 7.9375 15.4101 7.9375 11.0946C7.9375 7.97646 9.82206 5.29802 12.516 4.13114C11.5076 3.72846 10.407 3.50702 9.25444 3.50702C4.40225 3.50708 0.46875 7.43346 0.46875 12.2768C0.46875 19.2254 7.38081 23.9114 13.2925 27.7123C14.9412 28.7724 17.0592 28.7718 18.708 27.7117C20.5119 26.5518 21.7888 25.7179 23.0259 24.8101C21.7312 25.3438 20.2371 25.2237 19.0325 24.4492Z" fill="#EA5B70"/>
<path d="M22.0938 11.9446H20.0625V9.91333C20.0625 8.79152 19.1531 7.88208 18.0312 7.88208C17.5768 7.88208 14.3707 7.88208 13.9688 7.88208C12.8469 7.88208 11.9375 8.79152 11.9375 9.91333V11.9446H9.90625C9.14706 11.9446 8.48563 12.3613 8.137 12.9783C7.9705 13.273 7.875 13.6132 7.875 13.9758V18.0383C7.875 19.1601 8.78444 20.0696 9.90625 20.0696H11.9375V22.1008C11.9375 23.2226 12.8469 24.1321 13.9688 24.1321H17.3051H18.0312C18.1808 24.1321 18.3264 24.1155 18.4668 24.0848C19.3792 23.8853 20.0625 23.0731 20.0625 22.1008V20.0696H22.0938C23.2156 20.0696 24.125 19.1601 24.125 18.0383V13.9758C24.125 12.854 23.2156 11.9446 22.0938 11.9446Z" fill="#EFEDFF"/>
<path d="M8.137 12.9783C7.9705 13.273 7.875 13.6132 7.875 13.9758V18.0383C7.875 19.1601 8.78444 20.0696 9.90625 20.0696H11.9375V22.1008C11.9375 23.2226 12.8469 24.1321 13.9688 24.1321H17.3051H18.0312C18.1808 24.1321 18.3264 24.1155 18.4668 24.0848C16.4911 22.8087 15.2069 21.937 13.6258 20.6377C11.3804 18.7927 8.85413 16.3185 8.137 12.9783Z" fill="#D4D4FF"/>
<path d="M17.5204 4.65073C16.6027 5.27835 15.4008 5.28073 14.4797 4.65073C12.8466 3.5336 10.8813 2.9536 8.81869 3.04842C8.56006 3.06035 8.36013 3.27973 8.37206 3.53835C8.384 3.79692 8.60294 3.99598 8.862 3.98498C10.6459 3.90229 12.4262 4.38185 13.9504 5.42454C15.1889 6.27173 16.8111 6.27173 18.0497 5.42454C23.5928 1.63236 31.0625 5.65679 31.0625 12.2769C31.0625 19.005 24.2064 23.6188 18.4545 27.3174C16.9607 28.2778 15.0417 28.2797 13.5459 27.318C7.63263 23.5159 0.9375 18.9364 0.9375 12.2769C0.937437 8.51767 3.47625 5.21842 7.1115 4.25385C7.36169 4.18742 7.51075 3.93079 7.44431 3.68054C7.37787 3.43029 7.12125 3.28129 6.871 3.34773C2.82544 4.42129 -6.2499e-05 8.09304 1.03685e-09 12.2769C1.03685e-09 19.4371 6.94919 24.1911 13.039 28.1066C14.8414 29.2655 17.1566 29.2663 18.9616 28.106C25.0531 24.1891 32 19.4297 32 12.2769C32 4.87723 23.6597 0.450918 17.5204 4.65073Z" fill="black"/>
<path d="M18.0312 7.41333H13.9688C12.5903 7.41333 11.4688 8.53483 11.4688 9.91333V11.4758H9.90625C8.52775 11.4758 7.40625 12.5973 7.40625 13.9758V18.0383C7.40625 19.4168 8.52775 20.5383 9.90625 20.5383H11.4688V22.1008C11.4688 23.4793 12.5903 24.6008 13.9688 24.6008H18.0312C19.4097 24.6008 20.5312 23.4793 20.5312 22.1008V20.5383H22.0938C23.4722 20.5383 24.5938 19.4168 24.5938 18.0383V16.8599C24.5938 16.601 24.3839 16.3911 24.125 16.3911C23.8661 16.3911 23.6562 16.601 23.6562 16.8599V18.0383C23.6562 18.8999 22.9553 19.6008 22.0938 19.6008H20.0625C19.8036 19.6008 19.5938 19.8106 19.5938 20.0696V22.1008C19.5938 22.9624 18.8928 23.6633 18.0312 23.6633H13.9688C13.1072 23.6633 12.4062 22.9624 12.4062 22.1008V20.0696C12.4062 19.8106 12.1964 19.6008 11.9375 19.6008H9.90625C9.04469 19.6008 8.34375 18.8999 8.34375 18.0383V13.9758C8.34375 13.1143 9.04469 12.4133 9.90625 12.4133H11.9375C12.1964 12.4133 12.4062 12.2035 12.4062 11.9446V9.91333C12.4062 9.05177 13.1072 8.35083 13.9688 8.35083H18.0312C18.8928 8.35083 19.5938 9.05177 19.5938 9.91333V11.9446C19.5938 12.2035 19.8036 12.4133 20.0625 12.4133H22.0938C22.9553 12.4133 23.6562 13.1143 23.6562 13.9758V14.9849C23.6562 15.2438 23.8661 15.4536 24.125 15.4536C24.3839 15.4536 24.5938 15.2438 24.5938 14.9849V13.9758C24.5938 12.5973 23.4722 11.4758 22.0938 11.4758H20.5312V9.91333C20.5312 8.53483 19.4097 7.41333 18.0312 7.41333Z" fill="black"/>
</g>
<defs>
<clipPath id="clip0_77_6377">
<rect width="32" height="32" fill="white"/>
</clipPath>
</defs>
</svg>
