<svg width="32" height="32" viewBox="0 0 32 32" fill="none" xmlns="http://www.w3.org/2000/svg">
<g clip-path="url(#clip0_77_2050)">
<path d="M16 6.20538L4.63568 17.5698V24.6582C4.63568 26.5411 6.16206 28.0675 8.04499 28.0675H23.9551C25.8379 28.0675 27.3644 26.5411 27.3644 24.6582V17.5698L16 6.20538Z" fill="#EFEDFF"/>
<path d="M15.8292 22.4436V6.37612L11.4542 10.7511V6.20537C11.4542 4.95012 10.4367 3.9325 9.18137 3.9325H6.9085C5.65325 3.9325 4.63562 4.95006 4.63562 6.20537V24.6582C4.63562 26.5411 6.16199 28.0675 8.04493 28.0675H21.4531C18.3472 28.0675 15.8292 25.5496 15.8292 22.4436Z" fill="#D4D4FF"/>
<path d="M20.4531 17.3438H18.9688V15.8594C18.9688 15.0396 18.3042 14.375 17.4844 14.375H15.8076H14.5156C13.6958 14.375 13.0312 15.0396 13.0312 15.8594V17.3438H13.0311H11.5469C10.9921 17.3438 10.5087 17.6483 10.254 18.0992C10.1323 18.3146 10.0625 18.5631 10.0625 18.8281V21.7969C10.0625 22.6166 10.7271 23.2812 11.5469 23.2812H13.0312V24.7656C13.0312 25.5854 13.6958 26.25 14.5156 26.25H16.9538H17.4844C17.5937 26.25 17.7001 26.2378 17.8027 26.2154C18.1005 26.1504 18.3647 25.9957 18.5662 25.7814C18.8157 25.5159 18.9688 25.1587 18.9688 24.7656V23.2812H20.4531C21.2729 23.2812 21.9375 22.6166 21.9375 21.7969V18.8281C21.9375 18.0083 21.2729 17.3438 20.4531 17.3438Z" fill="#FF8E9E"/>
<path d="M11.5469 23.2812H13.0312V24.7656C13.0312 25.5854 13.6958 26.25 14.5156 26.25H16.9538H17.3136C16.3921 25.2484 15.8293 23.9118 15.8293 22.4436V14.375H15.8076H14.5156C13.6958 14.375 13.0312 15.0396 13.0312 15.8594V17.3438H13.0311H11.5469C10.9921 17.3438 10.5088 17.6483 10.2539 18.0992C10.1323 18.3146 10.0625 18.5631 10.0625 18.8281V21.7969C10.0625 22.6166 10.7271 23.2812 11.5469 23.2812Z" fill="#EA5B70"/>
<path d="M30.8655 17.8566L17.6071 4.59824C16.7195 3.71062 15.2803 3.71062 14.3928 4.59824L1.13441 17.8566C0.246783 18.7442 0.246783 20.1834 1.13441 21.071C2.02197 21.9586 3.46116 21.9586 4.34866 21.071L16 9.41968L27.6512 21.0709C28.095 21.5147 28.6767 21.7366 29.2583 21.7366C29.84 21.7366 30.4217 21.5147 30.8655 21.0709C31.7531 20.1834 31.7531 18.7442 30.8655 17.8566Z" fill="#FF8E9E"/>
<path d="M17.6071 4.59824C16.7195 3.71062 15.2803 3.71062 14.3928 4.59824L1.13441 17.8566C0.246783 18.7442 0.246783 20.1834 1.13441 21.071C2.02197 21.9586 3.46116 21.9586 4.34866 21.071L16 9.41968V8.47824C16 7.02293 16.5781 5.62724 17.6071 4.59824Z" fill="#EA5B70"/>
<path d="M31.1982 17.5254L17.9387 4.26705C16.8674 3.19567 15.1328 3.19549 14.0612 4.26699L11.9227 6.40536V6.20567C11.9227 4.69392 10.6927 3.46405 9.1808 3.46405H6.90774C5.39592 3.46405 4.16592 4.69399 4.16592 6.20567V7.33311C4.16592 7.59205 4.3758 7.80186 4.63474 7.80186C4.89367 7.80186 5.10355 7.59205 5.10355 7.33311V6.20567C5.10355 5.21086 5.91292 4.40155 6.90774 4.40155H9.1808C10.1757 4.40155 10.9851 5.21086 10.9851 6.20567V7.34286L5.10349 13.224V9.20811C5.10349 8.94917 4.89361 8.73936 4.63467 8.73936C4.37574 8.73936 4.16586 8.94917 4.16586 9.20811V14.1615L0.801675 17.5254C-0.267388 18.5944 -0.267388 20.3338 0.801675 21.4027C1.7343 22.3354 3.1358 22.436 4.16586 21.8069V24.6585C4.16586 26.7969 5.90567 28.5365 8.04424 28.5365H23.9555C26.094 28.5365 27.8339 26.7969 27.8339 24.6585V23.9124C27.8339 23.6535 27.624 23.4437 27.365 23.4437C27.1061 23.4437 26.8962 23.6535 26.8962 23.9124V24.6585C26.8962 26.2799 25.577 27.599 23.9554 27.599H8.04436C6.42286 27.599 5.10355 26.2799 5.10355 24.6585V20.9785C7.45199 18.6302 13.6401 12.4426 16 10.0829L26.8964 20.9785V22.0374C26.8964 22.2964 27.1063 22.5062 27.3652 22.5062C27.6242 22.5062 27.834 22.2964 27.834 22.0374V21.8068C28.8614 22.4343 30.2637 22.3373 31.1982 21.4027C32.2672 20.3338 32.2672 18.5944 31.1982 17.5254ZM30.5352 20.7399C29.8302 21.4448 28.6887 21.4449 27.9837 20.7398L16.3315 9.08855C16.1485 8.90561 15.8517 8.90549 15.6686 9.08855C15.1209 9.63617 4.36424 20.392 4.01642 20.7399C3.31155 21.4448 2.16999 21.4451 1.46492 20.7398C0.761362 20.0364 0.761362 18.8919 1.46492 18.1884C1.9198 17.7336 14.2565 5.3978 14.7244 4.92992C15.4293 4.22505 16.5707 4.22486 17.2759 4.92999L30.5353 18.1884C31.2387 18.8918 31.2387 20.0364 30.5352 20.7399Z" fill="black"/>
<path d="M14.5155 26.7188H17.4845C18.5599 26.7188 19.4378 25.8464 19.4378 24.7656V23.75H20.4534C21.5305 23.75 22.4067 22.8738 22.4067 21.7969V18.8281C22.4067 17.7512 21.5304 16.875 20.4534 16.875H19.4378V15.8594C19.4378 14.7824 18.5615 13.9062 17.4845 13.9062H14.5155C13.4384 13.9062 12.5623 14.7824 12.5623 15.8593L12.5622 16.875H11.5466C10.4685 16.875 9.59332 17.7517 9.59332 18.8281V21.7969C9.59332 22.8738 10.4696 23.75 11.5466 23.75H12.5623V24.7656C12.5623 25.8426 13.4384 26.7188 14.5155 26.7188ZM11.5465 22.8125C10.9864 22.8125 10.5308 22.3569 10.5308 21.7969V18.8281C10.5308 18.2622 10.9927 17.8125 11.5465 17.8125H13.031C13.2899 17.8125 13.4998 17.6027 13.4998 17.3438V15.8594C13.4998 15.2994 13.9555 14.8438 14.5155 14.8438H17.4845C18.0446 14.8438 18.5002 15.2994 18.5002 15.8594V17.3438C18.5002 17.6027 18.7101 17.8125 18.969 17.8125H20.4535C21.0136 17.8125 21.4692 18.2681 21.4692 18.8281V21.7969C21.4692 22.3569 21.0135 22.8125 20.4535 22.8125H18.969C18.7101 22.8125 18.5002 23.0223 18.5002 23.2812V24.7656C18.5002 25.3278 18.0427 25.7812 17.4845 25.7812H14.5155C13.9554 25.7812 13.4998 25.3256 13.4998 24.7656V23.2812C13.4998 23.0223 13.2899 22.8125 13.031 22.8125H11.5465Z" fill="black"/>
</g>
<defs>
<clipPath id="clip0_77_2050">
<rect width="32" height="32" fill="white"/>
</clipPath>
</defs>
</svg>
