<svg width="32" height="32" viewBox="0 0 32 32" fill="none" xmlns="http://www.w3.org/2000/svg">
<g clip-path="url(#clip0_77_6479)">
<path d="M28.6432 1.40013C25.2261 2.86856 21.2959 2.72213 17.9809 0.961188C17.5297 0.721563 17.0465 0.570313 16.5549 0.505625C16.3735 0.48175 16.1909 0.46875 16.0083 0.46875C15.3311 0.468688 14.6538 0.6325 14.0361 0.960438C12.5275 1.7615 10.8904 2.22744 9.23206 2.36056C7.2425 2.52031 5.22225 2.20056 3.35606 1.399C1.98837 0.811625 0.46875 1.83663 0.46875 3.3275V8.35619C0.46875 17.5011 5.24306 25.9798 13.0555 30.7092L13.0556 30.7093C13.9633 31.2588 14.986 31.5327 16.0083 31.5312C17.0251 31.5296 18.0416 31.2559 18.9444 30.7093L18.9445 30.7092C20.6121 29.6997 22.1403 28.5184 23.5141 27.1971C24.0188 26.7116 24.5033 26.2078 24.9653 25.6858C29.1367 20.9729 31.5312 14.8318 31.5312 8.35619V3.32819C31.5312 1.83706 30.0111 0.81225 28.6432 1.40013Z" fill="#EFEDFF"/>
<path d="M20.3219 24.5857C16.1059 20.6993 12.8944 15.8177 10.9998 10.375C10.1078 7.81274 9.50725 5.12636 9.232 2.36061C7.24244 2.52036 5.22219 2.20061 3.356 1.39905C1.98837 0.811614 0.46875 1.83661 0.46875 3.32749V8.35618C0.46875 17.5011 5.24306 25.9798 13.0555 30.7092L13.0556 30.7093C13.9633 31.2588 14.986 31.5327 16.0083 31.5312C17.0251 31.5296 18.0416 31.2559 18.9444 30.7093L18.9445 30.7092C20.6121 29.6997 22.1403 28.5184 23.5141 27.1971C22.3954 26.3876 21.3301 25.5151 20.3219 24.5857Z" fill="#D4D4FF"/>
<path d="M23.5 10.375H21V7.875C21 6.49431 19.8807 5.375 18.5 5.375H15.6759H13.5C12.1193 5.375 11 6.49431 11 7.875V10.375H10.9998H8.5C7.56562 10.375 6.7515 10.888 6.3225 11.6473C6.1175 12.0101 6 12.4287 6 12.875V17.875C6 19.2557 7.11931 20.375 8.5 20.375H11V22.875C11 24.2557 12.1193 25.375 13.5 25.375H17.6063H18.5C18.6841 25.375 18.8633 25.3545 19.0361 25.3167C19.5377 25.2071 19.9827 24.9467 20.3219 24.5858C20.7422 24.1386 21 23.5371 21 22.875V20.375H23.5C24.8807 20.375 26 19.2557 26 17.875V12.875C26 11.4943 24.8807 10.375 23.5 10.375Z" fill="#FF8E9E"/>
<path d="M10.9998 10.375H8.5C7.56562 10.375 6.7515 10.888 6.3225 11.6473C6.1175 12.0101 6 12.4287 6 12.875V17.875C6 19.2557 7.11931 20.375 8.5 20.375H11V22.875C11 24.2557 12.1193 25.375 13.5 25.375H17.6063H18.5C18.6841 25.375 18.8633 25.3545 19.0361 25.3167C19.5377 25.2071 19.9827 24.9467 20.3219 24.5858C16.1059 20.6993 12.8944 15.8177 10.9998 10.375Z" fill="#EA5B70"/>
<path d="M0.9375 8.357V6.14906C0.9375 5.89013 0.727687 5.68031 0.46875 5.68031C0.209812 5.68031 0 5.89019 0 6.14906V8.357C0 17.6378 4.83906 26.2696 12.7796 31.0933C13.1538 31.3969 14.4474 32 16.0298 32C17.1534 32 18.2158 31.7018 19.1872 31.1135C19.1888 31.1125 19.1905 31.1115 19.1921 31.1104C27.1877 26.2674 32 17.5961 32 8.357V3.3285C32 1.50419 30.1441 0.245375 28.4581 0.9695C25.1023 2.41175 21.3225 2.20569 18.2008 0.54725C17.5269 0.189187 16.7684 0 16.0072 0C15.247 0 14.4894 0.188938 13.8162 0.546438C10.6457 2.23 6.85456 2.392 3.54106 0.968375C1.8565 0.245125 0 1.50312 0 3.32775V4.27406C0 4.533 0.209812 4.74281 0.46875 4.74281C0.727687 4.74281 0.9375 4.533 0.9375 4.27406V3.32775C0.9375 2.17231 2.10631 1.37269 3.171 1.82975C6.735 3.36094 10.8239 3.19694 14.2559 1.37444C15.3576 0.789312 16.6687 0.795 17.7609 1.37513C21.1257 3.16275 25.2032 3.38875 28.8281 1.83088C29.8944 1.37294 31.0625 2.17425 31.0625 3.3285V8.35706C31.0625 17.1554 26.4496 25.6075 18.6966 30.3147C17.8751 30.8109 16.9779 31.0625 16.0298 31.0625C14.5718 31.0625 13.5039 30.4503 13.3778 30.372C5.16406 25.2768 0.9375 16.8317 0.9375 8.357Z" fill="black"/>
<path d="M18.5 4.90625H13.5C11.8631 4.90625 10.5312 6.23806 10.5312 7.875V9.90625H8.5C6.86306 9.90625 5.53125 11.2381 5.53125 12.875V17.875C5.53125 19.5119 6.86306 20.8438 8.5 20.8438H10.5312V22.875C10.5312 24.5119 11.8631 25.8438 13.5 25.8438H18.5C20.1369 25.8438 21.4688 24.5119 21.4688 22.875V20.8438H23.5C25.1369 20.8438 26.4688 19.5119 26.4688 17.875V16.0927C26.4688 15.8337 26.2589 15.6239 26 15.6239C25.7411 15.6239 25.5312 15.8337 25.5312 16.0927V17.875C25.5312 18.9951 24.6201 19.9062 23.5 19.9062H21C20.7411 19.9062 20.5312 20.1161 20.5312 20.375V22.875C20.5312 23.9951 19.6201 24.9062 18.5 24.9062H13.5C12.3799 24.9062 11.4688 23.9951 11.4688 22.875V20.375C11.4688 20.1161 11.2589 19.9062 11 19.9062H8.5C7.37994 19.9062 6.46875 18.9951 6.46875 17.875V12.875C6.46875 11.7549 7.37994 10.8438 8.5 10.8438H11C11.2589 10.8438 11.4688 10.6339 11.4688 10.375V7.875C11.4688 6.75494 12.3799 5.84375 13.5 5.84375H18.5C19.6201 5.84375 20.5312 6.75494 20.5312 7.875V10.375C20.5312 10.6339 20.7413 10.8438 21.0002 10.8438H23.5C24.6201 10.8438 25.5312 11.7549 25.5312 12.875V14.2177C25.5312 14.4766 25.7411 14.6864 26 14.6864C26.2589 14.6864 26.4688 14.4766 26.4688 14.2177V12.875C26.4688 11.2381 25.1369 9.90625 23.5 9.90625H21.4688V7.875C21.4688 6.23806 20.1369 4.90625 18.5 4.90625Z" fill="black"/>
</g>
<defs>
<clipPath id="clip0_77_6479">
<rect width="32" height="32" fill="white"/>
</clipPath>
</defs>
</svg>
