<svg width="24" height="24" viewBox="0 0 24 24" fill="none" xmlns="http://www.w3.org/2000/svg">
<path d="M20.233 16.9772C21.1815 15.4318 21.6824 13.6534 21.6799 11.8401L21.6799 11.84L21.6799 11.8398C21.6824 10.0265 21.1815 8.24813 20.2329 6.70274L20.2276 6.6943C19.3475 5.25996 18.1144 4.07526 16.6459 3.25341C15.1775 2.43156 13.5228 2.00001 11.84 2C10.1572 1.99999 8.50253 2.43153 7.03408 3.25337C5.56562 4.07521 4.33246 5.2599 3.45241 6.69423L3.44695 6.70278C2.50073 8.24923 2.00001 10.027 2 11.8399C1.99999 13.6529 2.5007 15.4307 3.44691 16.9771L3.45247 16.9858C4.33251 18.4201 5.56568 19.6048 7.03412 20.4266C8.50257 21.2484 10.1572 21.6799 11.84 21.6799C13.5228 21.6799 15.1774 21.2484 16.6459 20.4265C18.1143 19.6047 19.3475 18.42 20.2275 16.9857L20.233 16.9772ZM13.0977 19.9935C12.9102 20.1744 12.6944 20.3235 12.4588 20.4348C12.2655 20.5266 12.0541 20.5743 11.84 20.5743C11.6259 20.5743 11.4145 20.5266 11.2211 20.4348C10.7728 20.2058 10.389 19.868 10.1048 19.4525C9.52454 18.6139 9.09449 17.6808 8.83392 16.6949C9.83492 16.6333 10.8369 16.6019 11.84 16.6008C12.8426 16.6008 13.8447 16.6322 14.8462 16.6949C14.7019 17.2018 14.5218 17.6978 14.3071 18.1792C14.0244 18.8561 13.6137 19.4721 13.0977 19.9935V19.9935ZM3.12485 12.3928H7.09379C7.11963 13.5003 7.23967 14.6035 7.45261 15.6906C6.36766 15.7861 5.28548 15.9172 4.20607 16.084C3.57399 14.95 3.2045 13.6886 3.12485 12.3928ZM4.20606 7.59591C5.28505 7.76311 6.36761 7.89427 7.45375 7.98938C7.24039 9.07642 7.12008 10.1797 7.09414 11.2872H3.12485C3.2045 9.99134 3.57398 8.72992 4.20606 7.59591H4.20606ZM10.5822 3.68643C10.7697 3.5055 10.9855 3.35644 11.2211 3.24515C11.4145 3.15327 11.6259 3.1056 11.84 3.1056C12.0541 3.1056 12.2655 3.15327 12.4588 3.24515C12.9072 3.47415 13.2909 3.81188 13.5751 4.22745C14.1554 5.066 14.5854 5.99909 14.846 6.985C13.845 7.04659 12.843 7.07797 11.84 7.07913C10.8374 7.07912 9.83528 7.04774 8.83374 6.98498C8.97797 6.47807 9.15813 5.98208 9.37285 5.50077C9.65558 4.82387 10.0662 4.20784 10.5822 3.68643ZM20.5551 11.2872H16.5861C16.5603 10.1797 16.4403 9.07641 16.2273 7.98928C17.3123 7.89381 18.3945 7.76268 19.4739 7.5959C20.1059 8.72991 20.4754 9.99134 20.5551 11.2872ZM8.5646 15.6047C8.34838 14.5469 8.22627 13.4721 8.19969 12.3928H15.4804C15.454 13.4721 15.3321 14.5469 15.1161 15.6047C14.0253 15.5331 12.9332 15.4966 11.84 15.4952C10.7475 15.4952 9.65572 15.5317 8.5646 15.6047ZM15.1153 8.07523C15.3315 9.13301 15.4536 10.2078 15.4802 11.2872H8.19956C8.2259 10.2078 8.34779 9.13299 8.56381 8.07519C9.65466 8.14676 10.7467 8.18327 11.84 8.18474C12.9324 8.18474 14.0242 8.14824 15.1153 8.07524V8.07523ZM16.5858 12.3928H20.5551C20.4754 13.6886 20.1059 14.95 19.4739 16.084C18.3949 15.9168 17.3123 15.7856 16.2262 15.6906C16.4395 14.6035 16.5598 13.5003 16.5858 12.3928ZM18.811 6.5783C17.8676 6.71441 16.9214 6.82217 15.9723 6.90158C15.8018 6.26654 15.5818 5.64581 15.3144 5.04508C15.0703 4.49226 14.7631 3.9695 14.399 3.4872C16.1586 4.02686 17.7028 5.10872 18.811 6.5783ZM5.66382 5.66382C6.67323 4.65345 7.91507 3.90612 9.28048 3.48733C9.25977 3.51416 9.23846 3.5398 9.21803 3.56719C8.51621 4.57749 8.005 5.70759 7.70961 6.90175C6.76053 6.82137 5.81365 6.71355 4.86897 6.5783C5.11261 6.25559 5.37819 5.95004 5.66382 5.66382ZM4.86897 17.1016C5.81234 16.9655 6.75855 16.8577 7.70759 16.7783C7.87815 17.4134 8.09814 18.0341 8.36553 18.6349C8.60965 19.1877 8.91683 19.7104 9.28094 20.1927C7.52128 19.6531 5.97712 18.5712 4.86897 17.1016V17.1016ZM18.0161 18.0161C17.0067 19.0265 15.7649 19.7738 14.3994 20.1926C14.4202 20.1658 14.4415 20.1401 14.4619 20.1127C15.1637 19.1024 15.6749 17.9723 15.9703 16.7782C16.9194 16.8586 17.8663 16.9664 18.811 17.1016C18.5673 17.4243 18.3017 17.7299 18.0161 18.0161V18.0161Z" fill="#FEFEFE"/>
</svg>
