<svg width="41" height="32" viewBox="0 0 41 32" fill="none" xmlns="http://www.w3.org/2000/svg">
<path d="M39.7119 30.8297V30.9094H39.7865C39.8005 30.9096 39.8143 30.9061 39.8265 30.8992C39.8313 30.8958 39.8353 30.8912 39.8379 30.8859C39.8405 30.8806 39.8417 30.8747 39.8415 30.8687C39.8417 30.8629 39.8405 30.8572 39.8379 30.852C39.8352 30.8468 39.8313 30.8423 39.8265 30.8391C39.8144 30.8318 39.8005 30.8283 39.7865 30.8289H39.7119V30.8297ZM39.7873 30.7733C39.8193 30.7714 39.8509 30.7805 39.8769 30.7992C39.8873 30.8077 39.8955 30.8185 39.901 30.8308C39.9065 30.843 39.909 30.8564 39.9083 30.8697C39.9088 30.8813 39.9068 30.8928 39.9024 30.9034C39.8981 30.9141 39.8915 30.9238 39.8831 30.9317C39.8631 30.949 39.8379 30.9595 39.8115 30.9614L39.9115 31.0749H39.8345L39.7425 30.9622H39.7127V31.0749H39.6483V30.7735H39.7883L39.7873 30.7733ZM39.7673 31.1789C39.8011 31.1793 39.8345 31.1725 39.8655 31.159C39.8953 31.1462 39.9225 31.1279 39.9455 31.105C39.9685 31.0822 39.9869 31.0551 39.9997 31.0253C40.0259 30.9622 40.0259 30.8912 39.9997 30.8281C39.9867 30.7984 39.9684 30.7714 39.9455 30.7484C39.9225 30.7256 39.8953 30.7072 39.8655 30.6944C39.8343 30.6817 39.8009 30.6753 39.7673 30.6757C39.733 30.6754 39.6991 30.6817 39.6673 30.6944C39.6368 30.707 39.609 30.7253 39.5855 30.7484C39.5501 30.7846 39.5262 30.8303 39.5167 30.8799C39.5072 30.9295 39.5125 30.9807 39.5321 31.0273C39.5443 31.0572 39.5624 31.0843 39.5855 31.107C39.609 31.1301 39.6368 31.1484 39.6673 31.161C39.6989 31.1745 39.7329 31.1812 39.7673 31.1809V31.1789ZM39.7673 30.6032C39.8552 30.6031 39.9396 30.6374 40.0023 30.6988C40.0325 30.7283 40.0566 30.7634 40.0731 30.8022C40.0902 30.842 40.099 30.8849 40.099 30.9282C40.099 30.9715 40.0902 31.0144 40.0731 31.0542C40.0562 31.0928 40.0322 31.1279 40.0023 31.1576C39.9716 31.1869 39.9359 31.2106 39.8969 31.2274C39.8559 31.2447 39.8118 31.2535 39.7673 31.2533C39.7222 31.2536 39.6776 31.2448 39.6361 31.2274C39.5966 31.2109 39.5606 31.1873 39.5299 31.1576C39.5 31.1268 39.4763 31.0905 39.4601 31.0508C39.443 31.011 39.4342 30.9681 39.4342 30.9248C39.4342 30.8815 39.443 30.8386 39.4601 30.7988C39.4766 30.76 39.5007 30.7249 39.5309 30.6954C39.5612 30.6652 39.5973 30.6415 39.6371 30.6257C39.6786 30.6083 39.7232 30.5995 39.7683 30.5998L39.7673 30.6032ZM9.14329 29.4391C9.14329 28.8643 9.52129 28.3921 10.1391 28.3921C10.7295 28.3921 11.1279 28.844 11.1279 29.4391C11.1279 30.0342 10.7295 30.486 10.1391 30.486C9.52129 30.486 9.14329 30.0139 9.14329 29.4391ZM11.8009 29.4391V27.8034H11.0871V28.2019C10.8607 27.9074 10.5173 27.7227 10.0503 27.7227C9.13029 27.7227 8.40829 28.4415 8.40829 29.4399C8.40829 30.4382 9.12989 31.157 10.0503 31.157C10.5171 31.157 10.8607 30.9721 11.0871 30.6779V31.0749H11.8001V29.4391H11.8009ZM35.9193 29.4391C35.9193 28.8643 36.2973 28.3921 36.9153 28.3921C37.5063 28.3921 37.9041 28.844 37.9041 29.4391C37.9041 30.0342 37.5063 30.486 36.9153 30.486C36.2975 30.486 35.9193 30.0139 35.9193 29.4391ZM38.5777 29.4391V26.4905H37.8633V28.2019C37.6369 27.9074 37.2935 27.7227 36.8265 27.7227C35.9065 27.7227 35.1845 28.4415 35.1845 29.4399C35.1845 30.4382 35.9061 31.157 36.8265 31.157C37.2935 31.157 37.6369 30.9721 37.8633 30.6779V31.0749H38.5777V29.4391ZM20.6601 28.3585C21.1201 28.3585 21.4155 28.6457 21.4909 29.1516H19.7877C19.8639 28.6794 20.1517 28.3585 20.6603 28.3585H20.6601ZM20.6745 27.7209C19.7125 27.7209 19.0395 28.4182 19.0395 29.4381C19.0395 30.4779 19.7395 31.1552 20.7223 31.1552C21.2167 31.1552 21.6695 31.0323 22.0679 30.697L21.7181 30.17C21.4429 30.3892 21.0925 30.5121 20.7631 30.5121C20.3031 30.5121 19.8843 30.2999 19.7813 29.7112H22.2187C22.2257 29.6228 22.2329 29.5335 22.2329 29.4379C22.2257 28.4184 21.5929 27.7207 20.6741 27.7207L20.6745 27.7209ZM29.2921 29.4379C29.2921 28.8631 29.6701 28.3909 30.2879 28.3909C30.8783 28.3909 31.2767 28.8428 31.2767 29.4379C31.2767 30.033 30.8783 30.4848 30.2879 30.4848C29.6701 30.4848 29.2919 30.0127 29.2919 29.4379H29.2921ZM31.9495 29.4379V27.8034H31.2361V28.2019C31.0089 27.9074 30.6663 27.7227 30.1993 27.7227C29.2793 27.7227 28.5573 28.4415 28.5573 29.4399C28.5573 30.4382 29.2789 31.157 30.1993 31.157C30.6663 31.157 31.0089 30.9721 31.2361 30.6779V31.0749H31.9497V29.4391L31.9495 29.4379ZM25.2611 29.4379C25.2611 30.4298 25.9543 31.155 27.0123 31.155C27.5067 31.155 27.8361 31.0455 28.1923 30.7651L27.8495 30.1904C27.5815 30.3822 27.3001 30.4848 26.9895 30.4848C26.4197 30.4779 26.0007 30.0674 26.0007 29.4379C26.0007 28.8083 26.4197 28.3981 26.9895 28.3909C27.2993 28.3909 27.5807 28.4935 27.8495 28.6854L28.1923 28.1106C27.8355 27.8303 27.5061 27.7207 27.0123 27.7207C25.9543 27.7207 25.2611 28.4457 25.2611 29.4379ZM34.4631 27.7207C34.0513 27.7207 33.7831 27.9126 33.5977 28.1999V27.8034H32.8903V31.0732H33.6049V29.2402C33.6049 28.6991 33.8383 28.3985 34.3049 28.3985C34.4577 28.3963 34.6094 28.4243 34.7513 28.4808L34.9713 27.8106C34.8133 27.7486 34.6073 27.7213 34.4627 27.7213L34.4631 27.7207ZM15.3299 28.0634C14.9865 27.8379 14.5133 27.7213 13.9913 27.7213C13.1597 27.7213 12.6243 28.1184 12.6243 28.7681C12.6243 29.3012 13.0229 29.6301 13.7569 29.7327L14.0941 29.7806C14.4855 29.8353 14.6703 29.9379 14.6703 30.1226C14.6703 30.3755 14.4103 30.5197 13.9221 30.5197C13.4277 30.5197 13.0709 30.3623 12.8303 30.1776L12.4949 30.7321C12.8863 31.0194 13.3807 31.1564 13.9161 31.1564C14.8641 31.1564 15.4135 30.7118 15.4135 30.0892C15.4135 29.5144 14.9811 29.2137 14.2667 29.1111L13.9303 29.0625C13.6213 29.0227 13.3737 28.9607 13.3737 28.7416C13.3737 28.5025 13.6071 28.3587 13.9987 28.3587C14.4177 28.3587 14.8233 28.516 15.0221 28.639L15.3311 28.0642L15.3299 28.0634ZM24.5401 27.7219C24.1283 27.7219 23.8601 27.9138 23.6755 28.2011V27.8034H22.9681V31.0732H23.6819V29.2402C23.6819 28.6991 23.9153 28.3985 24.3819 28.3985C24.5347 28.3963 24.6864 28.4243 24.8283 28.4808L25.0483 27.8106C24.8903 27.7486 24.6843 27.7213 24.5397 27.7213L24.5401 27.7219ZM18.4489 27.8034H17.2817V26.8114H16.5601V27.8034H15.8943V28.4533H16.5601V29.9449C16.5601 30.7036 16.8557 31.1554 17.7001 31.1554C18.0099 31.1554 18.3667 31.0598 18.5931 30.9026L18.3869 30.2938C18.1739 30.4167 17.9405 30.4787 17.7549 30.4787C17.3981 30.4787 17.2817 30.2595 17.2817 29.9314V28.4539H18.4489V27.8034ZM7.77709 31.074V29.0219C7.77709 28.2491 7.28269 27.7291 6.48569 27.7221C6.06669 27.7151 5.63449 27.845 5.33189 28.3039C5.10549 27.9413 4.74869 27.7221 4.24709 27.7221C3.89649 27.7221 3.55389 27.8247 3.28569 28.2076V27.8034H2.57129V31.0732H3.29129V29.2602C3.29129 28.6926 3.60729 28.3909 4.09529 28.3909C4.56929 28.3909 4.80909 28.6987 4.80909 29.253V31.0728H5.53069V29.2598C5.53069 28.6922 5.86009 28.3905 6.33389 28.3905C6.82129 28.3905 7.05389 28.6983 7.05389 29.2526V31.0724L7.77709 31.074Z" fill="#171725"/>
<path d="M40.119 20.1971V19.719H39.994L39.8494 20.0471L39.7056 19.719H39.5802V20.1971H39.669V19.8369L39.8042 20.1477H39.8962L40.0314 19.8361V20.1971H40.1194H40.119ZM39.326 20.1971V19.8009H39.486V19.7202H39.0771V19.8009H39.2371V20.1971H39.3252H39.326Z" fill="#FB9400"/>
<path d="M25.9109 22.2478H15.0938V2.88281H25.9111L25.9109 22.2478Z" fill="#FB4141"/>
<path d="M15.78 12.5657C15.78 8.63754 17.6264 5.13829 20.5016 2.88322C18.3252 1.17373 15.6334 0.245934 12.8618 0.250013C6.0344 0.250013 0.5 5.76387 0.5 12.5657C0.5 19.3676 6.0344 24.8815 12.8618 24.8815C15.6334 24.8856 18.3254 23.9578 20.5018 22.2482C17.6268 19.9936 15.78 16.4941 15.78 12.5657Z" fill="#FB4141"/>
<path d="M40.5047 12.5657C40.5047 19.3676 34.9703 24.8815 28.1429 24.8815C25.371 24.8855 22.6788 23.9577 20.502 22.2482C23.378 19.9932 25.2244 16.4941 25.2244 12.5657C25.2244 8.63734 23.378 5.13829 20.502 2.88322C22.6787 1.17378 25.3709 0.246006 28.1427 0.250013C34.9701 0.250013 40.5045 5.76387 40.5045 12.5657" fill="#FB9400"/>
</svg>
