<svg width="32" height="32" viewBox="0 0 32 32" fill="none" xmlns="http://www.w3.org/2000/svg">
<path opacity="0.4" d="M21.4345 3.16667H25.9491C27.5387 3.16667 28.8338 4.46664 28.8338 6.07996V10.6327C28.8338 12.246 27.5387 13.546 25.9491 13.546H21.4345C19.8449 13.546 18.5498 12.246 18.5498 10.6327V6.07996C18.5498 4.46664 19.8449 3.16667 21.4345 3.16667Z" fill="#5A73D8" stroke="#171725"/>
<path d="M10.5663 18.454C12.1559 18.454 13.451 19.754 13.451 21.3673V25.9201C13.451 27.5322 12.1558 28.8333 10.5663 28.8333H6.05169C4.46222 28.8333 3.16699 27.5322 3.16699 25.9201V21.3673C3.16699 19.754 4.4621 18.454 6.05169 18.454H10.5663ZM25.949 18.454C27.5386 18.454 28.8337 19.754 28.8337 21.3673V25.9201C28.8337 27.5322 27.5384 28.8333 25.949 28.8333H21.4343C19.8449 28.8333 18.5496 27.5322 18.5496 25.9201V21.3673C18.5496 19.754 19.8447 18.454 21.4343 18.454H25.949ZM10.5663 3.16667C12.1559 3.16667 13.451 4.46664 13.451 6.07996V10.6327C13.451 12.246 12.1559 13.546 10.5663 13.546H6.05169C4.4621 13.546 3.16699 12.246 3.16699 10.6327V6.07996C3.16699 4.46664 4.4621 3.16667 6.05169 3.16667H10.5663Z" fill="#5A73D8" stroke="#171725"/>
</svg>
