<svg width="32" height="32" viewBox="0 0 32 32" fill="none" xmlns="http://www.w3.org/2000/svg">
<g clip-path="url(#clip0_77_2068)">
<path d="M28.7835 3.21275C27.0871 1.51731 24.7441 0.46875 22.1562 0.46875C19.6698 0.46875 17.2853 1.4565 15.5271 3.21462L9.37085 9.37088L22.6291 22.6291L28.7854 16.4729C30.5435 14.7148 31.5312 12.3302 31.5312 9.84381C31.5312 7.25394 30.4811 4.9095 28.7835 3.21275Z" fill="#FF8E9E"/>
<path d="M9.37088 9.37088L3.21462 15.5271C1.45644 17.2853 0.46875 19.6699 0.46875 22.1563C0.46875 27.3339 4.66606 31.5313 9.84375 31.5313C10.5642 31.5313 11.2759 31.4478 11.9665 31.2873C13.6593 30.8937 15.2241 30.0341 16.4728 28.7854L22.6291 22.6292C21.5091 15.8244 16.1756 10.4909 9.37088 9.37088Z" fill="#EFEDFF"/>
<path d="M3.21462 15.5272C1.45644 17.2853 0.46875 19.6699 0.46875 22.1563C0.46875 27.3339 4.66606 31.5313 9.84375 31.5313C10.5642 31.5313 11.2759 31.4478 11.9665 31.2873C10.2689 29.5905 9.21875 27.2461 9.21875 24.6563C9.21875 22.1699 10.2065 19.7853 11.9646 18.0272L17.0828 12.9089C14.9246 11.1015 12.2827 9.85019 9.37088 9.37088L3.21462 15.5272Z" fill="#D4D4FF"/>
<path d="M28.7835 3.21275C27.0871 1.51731 24.7441 0.46875 22.1562 0.46875C19.6698 0.46875 17.2853 1.4565 15.5271 3.21462L9.37085 9.37088C12.2827 9.85013 14.9247 11.1015 17.0828 12.9089L24.2772 5.71462C25.5258 4.46587 27.0907 3.60637 28.7835 3.21275Z" fill="#EA5B70"/>
<path d="M14.9367 7.43676C15.5073 6.8662 16.5507 6.98445 17.2672 7.70095C17.9837 8.41745 18.1019 9.46083 17.5314 10.0314C16.9608 10.602 15.9174 10.4837 15.2009 9.7672C14.4844 9.0507 14.3662 8.00733 14.9367 7.43676Z" fill="#FFB5C0"/>
<path d="M24.5589 17.0637C25.1294 16.4933 25.0111 15.45 24.2947 14.7337C23.5783 14.0173 22.5351 13.899 21.9646 14.4695C21.3941 15.04 21.5124 16.0832 22.2288 16.7996C22.9451 17.516 23.9884 17.6342 24.5589 17.0637Z" fill="#FFB5C0"/>
<path d="M22.1562 0C19.5417 0 17.0797 1.01406 15.2236 2.85538C15.0399 3.03769 15.0387 3.3345 15.221 3.51825C15.4034 3.70206 15.7001 3.70325 15.8839 3.52087C17.5632 1.855 19.7908 0.9375 22.1562 0.9375C27.0767 0.9375 31.0625 4.91906 31.0625 9.84375C31.0625 12.2227 30.1361 14.4592 28.4539 16.1414L22.9219 21.6735C21.5354 15.3802 16.6197 10.4645 10.3266 9.07812L14.5594 4.84531C14.7424 4.66219 14.7424 4.36544 14.5594 4.18237C14.3763 3.99937 14.0795 3.99937 13.8965 4.18237C13.4161 4.66269 3.36538 14.7135 2.88313 15.1957C1.02394 17.0549 0 19.5269 0 22.1562C0 27.5841 4.41587 32 9.84375 32C12.3829 32 14.8925 31.0124 16.7746 29.1465C16.9584 28.9642 16.9596 28.6674 16.7774 28.4836C16.5951 28.2998 16.2983 28.2985 16.1145 28.4807C14.4123 30.1684 12.1418 31.0625 9.84375 31.0625C4.93281 31.0625 0.9375 27.0672 0.9375 22.1562C0.9375 19.7773 1.86387 17.5408 3.54606 15.8586L9.53063 9.874C15.9504 11.0309 20.9691 16.0497 22.126 22.4694L17.439 27.1563C17.2559 27.3394 17.2559 27.6362 17.439 27.8193C17.6221 28.0023 17.9189 28.0023 18.1019 27.8193L29.1169 16.8043C30.9761 14.9451 32 12.4731 32 9.84375C32 4.40525 27.5994 0 22.1562 0V0Z" fill="black"/>
</g>
<defs>
<clipPath id="clip0_77_2068">
<rect width="32" height="32" fill="white"/>
</clipPath>
</defs>
</svg>
