<svg width="45" height="15" viewBox="0 0 45 15" fill="none" xmlns="http://www.w3.org/2000/svg">
<path d="M19.5948 14.3067H15.9354L18.2225 0.251153H21.8822L19.5948 14.3067ZM12.8569 0.251153L9.36817 9.91869L8.95535 7.8369L8.95572 7.83765L7.72439 1.5167C7.72439 1.5167 7.57551 0.251153 5.9885 0.251153H0.220997L0.15332 0.489148C0.15332 0.489148 1.91703 0.856102 3.98115 2.0957L7.16043 14.3071H10.9732L16.7952 0.251153H12.8569ZM41.6399 14.3067H45L42.0704 0.250778H39.1287C37.7703 0.250778 37.4395 1.29825 37.4395 1.29825L31.9818 14.3067H35.7964L36.5593 12.2189H41.2113L41.6399 14.3067ZM37.6132 9.33479L39.5359 4.07485L40.6176 9.33479H37.6132ZM32.2679 3.6312L32.7901 0.612844C32.7901 0.612844 31.1787 0 29.4988 0C27.6828 0 23.3703 0.79369 23.3703 4.65311C23.3703 8.28431 28.4318 8.32943 28.4318 10.2368C28.4318 12.1441 23.8918 11.8023 22.3936 10.5996L21.8495 13.7556C21.8495 13.7556 23.4835 14.5492 25.98 14.5492C28.4773 14.5492 32.2446 13.2563 32.2446 9.73709C32.2446 6.08258 27.1377 5.74232 27.1377 4.15344C27.138 2.56417 30.7019 2.76833 32.2679 3.6312Z" fill="#2566AF"/>
</svg>
